<svg xmlns="http://www.w3.org/2000/svg" viewBox="0 0 48 48" width="48px" height="48px"><path fill="#fbc02d" d="M43.611,20.083H42V20H24v8h11.303c-1.649,4.657-6.08,8-11.303,8c-6.627,0-12-5.373-12-12s5.373-12,12-12c3.059,0,5.842,1.154,7.961,3.039l5.657-5.657C34.046,6.053,29.268,4,24,4C12.954,4,4,12.954,4,24s8.954,20,20,20s20-8.954,20-20C44,22.659,43.862,21.35,43.611,20.083z"/><path fill="#e53935" d="M6.306,14.691l6.571,4.819C14.655,15.108,18.961,12,24,12c3.059,0,5.842,1.154,7.961,3.039l5.657-5.657C34.046,6.053,29.268,4,24,4C16.318,4,9.656,8.337,6.306,14.691z"/><path fill="#4caf50" d="M24,44c4.031,0,7.813-1.189,11.006-3.23l-6.27-5.187C27.426,36.56,25.76,36,24,36c-5.223,0-9.654-3.343-11.303-8l-6.505,5.064C9.552,39.429,16.191,44,24,44z"/><path fill="#1565c0" d="M43.611,20.083L43.595,20L24,20v8h11.303c-0.792,2.237-2.231,4.166-4.087,5.571l6.27,5.187C39.02,36.03,42,32.02,44,28C44,25.321,43.862,24.03,43.611,20.083z"/></svg>
